<?xml version="1.0" encoding="UTF-8" standalone="no"?>
<svg xmlns="http://www.w3.org/2000/svg" version="1.1" xmlns:xlink="http://www.w3.org/1999/xlink" xmlns:svgjs="http://svgjs.dev/svgjs" width="1000" height="1125" viewBox="0 0 1000 1125"><g transform="matrix(1,0,0,1,1.7053025658242404e-13,0)"><svg viewBox="0 0 320 360" data-background-color="#ffffff" preserveAspectRatio="xMidYMid meet" height="1125" width="1000" xmlns="http://www.w3.org/2000/svg" xmlns:xlink="http://www.w3.org/1999/xlink"><g id="tight-bounds" transform="matrix(1,0,0,1,0,0)"><svg viewBox="0 0 320 360" height="360" width="320"><g><svg></svg></g><g><svg viewBox="0 0 320 360" height="360" width="320"><g><path xmlns="http://www.w3.org/2000/svg" d="M20.961 227.22l3.726 4.658-1.863-6.056c-0.466-2.795-3.726 0.466-1.863 1.398M25.153 224.425c1.397 2.329 2.795 4.658 2.795 6.987 0 3.261 2.795 4.658 5.123 5.589-3.261-3.726-5.124-13.974-7.918-12.576M204.017 26.929c7.918 0 15.371-0.932 23.756 0.931 20.495 5.124 37.729 15.371 49.374 29.811l32.606 52.169c1.397 13.042 4.192 27.482 3.726 43.319 3.261 0 2.795-4.658 6.521-5.59-3.726 9.316-5.59 20.961-6.521 34.469-2.329-7.453 0-18.632 0.466-24.687-3.261 5.124-5.124 1.397-5.124-0.932 0.466-3.726-1.397-3.261-2.795-4.658-5.124-4.658-8.384-9.782-12.11-17.7 2.329-6.055 2.795-14.905-4.658-19.563-2.329-1.397-5.124-3.726-6.521-7.453-1.863-5.124-5.124-11.179-4.193-19.097 0.466-2.329-6.987 5.124-11.179 1.863-18.166-12.576-36.332-27.016-58.224-39.127-11.645 0-20.029-4.192-24.221-9.316-3.726-4.658-0.932-10.713 4.658-11.179 3.261 0 6.987-0.932 9.782 0.932 0.466-1.863 2.329-4.192 4.657-4.192M157.904 16.215l0.932 0.466c4.658 0.932 6.987 7.453 12.11 5.124 0 3.261 0.466 6.521-0.466 8.85-1.397 3.726-5.59 3.726-8.85 3.726-31.208-1.863-49.374 11.179-68.471 22.358-5.124 3.261-10.713 5.59-14.906 9.782-20.029 18.632-41.921 35.866-47.045 70.335l-4.192 38.195c-0.466 4.192-5.124 8.384-4.192 13.508l3.26 22.824c-3.261-3.261-5.124 0.932-4.192 2.795 0.466 1.397 2.329 6.055 5.124 1.863 3.726 6.987 7.453 20.495 12.576 26.55 15.837 18.632 36.332 35.4 53.101 52.169 4.192-0.932 7.453-0.932 8.384-3.727 1.397 2.795-1.397 5.59-3.726 6.056 7.453 4.658 15.837 8.85 27.016 9.781 14.44 0.932 27.948 3.261 40.524 6.522 6.521-1.863 13.042-2.795 20.029-3.261 2.329 0 3.726-3.726 6.521-4.658l0.466-4.658c2.795 4.192 2.329-1.397 0.466-4.192 3.261 2.795 4.192 5.124 5.589 6.987 0-1.397 3.726-6.521 3.727-0.466l0.931-6.055c1.397-0.932 1.863 5.124 3.261 0.931 1.397-4.192 4.192-0.932 6.987-2.329-0.932 1.863-0.466 5.59 2.794 3.261l3.727-3.261c2.329 5.59 6.055 3.261 7.918 2.329 20.495-13.042 40.99-28.413 60.553-43.784l-0.466 6.055 2.329-7.453c2.329 2.329 4.192 0.466 5.124-0.931 2.795-4.658 6.521-9.316 12.577-13.508-7.453 20.029-16.303 35.866-27.482 48.908l-4.658 5.59c0 3.261-0.932 7.453-4.658 7.918-1.863 0.466-5.59-0.932-8.384 1.863-1.397 1.863 3.261 5.59-0.466 2.795-3.261-2.329-6.521 0-10.248 0.932-2.795 0.932 1.863 3.726 2.795 5.589 0.932 1.863 1.863 3.726 1.398 6.056l-5.124-5.59c-6.055 3.261-9.782 9.316-14.906 13.974-2.329 1.863-1.397 5.124-1.397 7.918-3.261 0-6.987-0.932-8.85 0.932-1.397 1.863-0.932 4.658-0.932 7.453-4.658-0.466-5.124-7.453-9.315-6.056-4.192 0.932-8.85 1.397-12.577 3.727 2.795 5.59-4.658 2.329-3.726 3.26-6.987-4.192-13.042-7.453-20.495-4.658-15.837-5.124-35.4-2.795-49.84-0.931 0-2.329 0.466-4.658-0.466-5.124-0.932 2.329-3.726 1.397-3.26 1.397-8.85-6.055-17.7-9.782-27.016-14.905-8.384 0.932-16.303-3.261-18.632-5.59-6.521-6.055-13.974-2.795-20.029-4.192-13.042-3.261-17.7-16.769-19.098-26.084-0.932-4.658-4.658-6.521-6.055-6.056-6.055-19.563-15.371-37.263-22.824-55.429-1.863-4.658-1.397-9.316-1.397-14.44 2.329 0.932 4.658 0.466 4.192-2.794-2.329-15.371-7.918-27.016-13.974-38.195 3.261-15.837 3.726-34.469 11.179-48.443 6.521-12.576 18.632-19.098 27.016-29.811 2.795-3.726 2.795-8.85 5.59-12.11 9.316-9.316 18.632-19.098 28.879-27.482 4.658-3.726 10.247 0 17.234-1.397 2.329-8.384 11.645-15.837 20.495-13.508 3.726 0.932 11.179-8.85 13.508-9.782 3.726-1.397 1.863 3.726 1.863 6.987 8.85-6.987 20.961-10.713 32.14-14.906" fill="#ff4136" fill-rule="nonzero" stroke="none" stroke-width="1" stroke-linecap="butt" stroke-linejoin="miter" stroke-miterlimit="10" stroke-dasharray="" stroke-dashoffset="0" font-family="none" font-weight="none" font-size="none" text-anchor="none" style="mix-blend-mode: normal" data-fill-palette-color="tertiary"></path></g><g transform="matrix(1,0,0,1,64,162.28508287292817)"><svg viewBox="0 0 192 35.42983425414364" height="35.42983425414364" width="192"><g><svg viewBox="0 0 192 35.42983425414364" height="35.42983425414364" width="192"><g><svg viewBox="0 0 192 35.42983425414364" height="35.42983425414364" width="192"><g><svg viewBox="0 0 192 35.42983425414364" height="35.42983425414364" width="192"><g id="textblocktransform"><svg viewBox="0 0 192 35.42983425414364" height="35.42983425414364" width="192" id="textblock"><g><svg viewBox="0 0 192 35.42983425414364" height="35.42983425414364" width="192"><g transform="matrix(1,0,0,1,0,0)"><svg width="192" viewBox="-0.08000000566244125 -30.959999084472656 217.1699981689453 40.07999801635742" height="35.42983425414364" data-palette-color="#ff0000"><path d="M22.48-18.44L22.48-18.44Q27.24-16.92 27.24-10.64L27.24-10.64Q27.24-5.4 22.78-0.38 18.32 4.64 10.52 4.64L10.52 4.64Q4.4 4.64 2.56 1.08L2.56 1.08Q1.92-0.12 1.92-1.38 1.92-2.64 2.56-3.96L2.56-3.96Q3.76-6.52 6.04-6.52L6.04-6.52Q6.24-6.52 6.32-6.3 6.4-6.08 6.3-5.84 6.2-5.6 6-5.6L6-5.6Q4.64-5.6 3.72-3.84L3.72-3.84Q3.08-2.68 3.08-1.64 3.08-0.6 3.56 0.36L3.56 0.36Q4.96 3.08 9.8 3.08L9.8 3.08Q15.88 3.08 20.36-2.04L20.36-2.04Q23.84-5.96 24.64-10.64L24.64-10.64Q24.84-11.76 24.84-12.72L24.84-12.72Q24.84-15.48 23.2-16.84L23.2-16.84Q22.32-17.56 21.04-17.68L21.04-17.68Q18.88-16.76 16.4-16.76L16.4-16.76Q16.12-16.76 16.12-17.3 16.12-17.84 16.4-17.84L16.4-17.84Q20.44-17.84 23.48-21.64L23.48-21.64Q25.72-24.48 25.88-27.2L25.88-27.2Q25.8-29.6 24-29.72L24-29.72Q22.04-29.72 19.8-26.92 17.56-24.12 15.76-20.12 13.96-16.12 12.46-11.94 10.96-7.76 10.12-4.78 9.28-1.8 9.28-1.28 9.28-0.76 8.72-0.76L8.72-0.76Q7.52-0.76 7.52-3.96L7.52-3.96Q7.52-11.68 9.26-18.96 11-26.24 13.12-28.68L13.12-28.68Q7.4-27.88 3.84-24.64L3.84-24.64Q1.8-22.84 1.8-20.72L1.8-20.72Q1.8-19.68 2.6-19.68L2.6-19.68Q2.44-19.12 1.72-19.12 1-19.12 0.46-19.68-0.08-20.24-0.08-21.24L-0.08-21.24Q-0.08-23.6 2.78-25.62 5.64-27.64 8.96-28.62 12.28-29.6 14.6-29.6L14.6-29.6Q15.24-29.6 15.24-28.96L15.24-28.96Q12.64-22.92 10.52-11.32L10.52-11.32 10.84-11.32Q13.16-18.56 16.32-24.28L16.32-24.28Q18-27.36 20.04-29.14 22.08-30.92 24.2-30.92L24.2-30.92Q27.56-30.92 28.2-28.2L28.2-28.2Q28.32-27.64 28.32-27L28.32-27Q28.32-24.84 26.66-22.38 25-19.92 22.48-18.44ZM31.52-3.4L31.52-3.4Q31.52-9.32 32.74-13.96 33.96-18.6 35.84-18.6L35.84-18.6Q36.76-18.6 36.76-17.6L36.76-17.6Q36.36-16.56 35.76-14.84 35.16-13.12 34.18-8.62 33.2-4.12 33.2-0.6L33.2-0.6Q33.2-0.04 32.6-0.04L32.6-0.04Q31.52-0.04 31.52-3.4ZM37.36-23.04L36.88-22.36Q36.04-22.36 36.04-23.96L36.04-23.96Q36.04-24.92 36.56-25.98 37.08-27.04 38.04-27.04L38.04-27.04Q38.84-27.04 38.84-26.12L38.84-26.12Q38.84-25.2 37.36-23.04L37.36-23.04ZM51.91-11.48L51.91-11.48Q50.4-11.48 50.4-14.8L50.4-14.8Q50.4-16.68 51.12-18.32L51.12-18.32Q48.4-15.96 45.03-9.54 41.67-3.12 41.67-1.16L41.67-1.16Q41.67-0.68 41.04-0.68L41.04-0.68Q39.88-0.68 39.88-3.84L39.88-3.84Q39.88-9.8 41.08-14.64 42.27-19.48 43.99-19.48L43.99-19.48Q44.76-19.48 44.76-18.6L44.76-18.6Q42.91-12.76 42.12-6.64L42.12-6.64 42.4-6.64Q45.63-14.12 49.55-18.32L49.55-18.32Q51.8-20.72 53.63-20.72L53.63-20.72Q54.03-20.72 54.3-20.48 54.55-20.24 54.55-19.88L54.55-19.88Q54.27-19.6 53.88-19.04 53.48-18.48 52.8-16.38 52.12-14.28 52.12-11.8L52.12-11.8Q52.12-11.48 51.91-11.48ZM64.95-19.4L64.95-19.4Q67.99-19.4 67.99-15.84L67.99-15.84Q67.99-13.8 66.63-11.56L66.63-11.56Q64.31-7.84 60.47-7.84L60.47-7.84Q59.87-7.84 59.47-8.04 59.07-8.24 58.87-8.64L58.87-8.64Q61.71-8.64 64.07-11.92L64.07-11.92Q65.99-14.56 65.99-16.76L65.99-16.76Q65.99-18.4 64.67-18.4L64.67-18.4Q62.03-18.4 59.75-14.28L59.75-14.28Q57.31-9.8 57.31-5.08L57.31-5.08Q57.31-1.08 59.59-0.28L59.59-0.28Q60.03-0.12 60.71-0.12 61.39-0.12 62.15-0.46 62.91-0.8 63.43-1.28L63.43-1.28Q64.47-2.24 65.15-3.4L65.15-3.4Q65.31-3.72 65.75-3.72L65.75-3.72Q66.47-3.72 66.43-3.48L66.43-3.48Q66.31-3.04 65.53-2 64.75-0.96 64.09-0.34 63.43 0.28 62.37 0.78 61.31 1.28 60.23 1.28L60.23 1.28Q55.99 1.28 54.83-2.72L54.83-2.72Q54.47-4.08 54.47-5.52L54.47-5.52Q54.47-8.2 55.71-11.36L55.71-11.36Q57.67-16.16 61.11-18.28L61.11-18.28Q62.99-19.4 64.95-19.4ZM72.79-6.48L73.15-6.48Q78.31-19.24 83.19-19.24L83.19-19.24Q85.23-19.24 85.23-17.28L85.23-17.28Q84.95-16.36 84.51-14.86 84.07-13.36 83.33-9.48 82.59-5.6 82.59-2.68L82.59-2.68Q82.59 1.56 83.83 1.56L83.83 1.56Q84.31 1.56 84.75 1.18 85.19 0.8 85.35 0.8L85.35 0.8Q85.91 0.8 85.35 1.68L85.35 1.68Q85.15 1.96 84.61 2.44 84.07 2.92 83.51 2.92L83.51 2.92Q81.99 2.92 81.13 0.74 80.27-1.44 80.27-4.92L80.27-4.92Q80.27-10.44 81.99-17.04L81.99-17.04Q82.15-17.56 81.67-17.56L81.67-17.56Q81.35-17.56 80.95-17.24L80.95-17.24Q79.03-15.56 76.91-11.68 74.79-7.8 73.59-4.74 72.39-1.68 72.39-1.18 72.39-0.68 71.83-0.68L71.83-0.68Q70.55-0.68 70.55-3.84L70.55-3.84Q70.55-9.8 71.77-14.64 72.99-19.48 74.71-19.48L74.71-19.48Q75.43-19.48 75.43-18.6L75.43-18.6Q73.59-12.64 72.79-6.48L72.79-6.48ZM91.35 0L91.35 0Q87.99 0 87.99-5.16L87.99-5.16Q87.99-8.16 89.51-11.76L89.51-11.76Q91.59-16.8 94.99-18.6L94.99-18.6Q96.47-19.4 97.67-19.4 98.87-19.4 99.51-18.98 100.15-18.56 100.35-18.12L100.35-18.12 100.55-17.68Q100.43-17 99.83-17 99.23-17 98.97-17.66 98.71-18.32 97.75-18.32L97.75-18.32Q95.15-18.32 93.11-13.72L93.11-13.72Q90.75-8.52 90.75-3.88L90.75-3.88Q90.75-1.44 91.75-1.44L91.75-1.44Q92.55-1.44 94.09-3.42 95.63-5.4 97.27-8.24L97.27-8.24Q99.51-12.16 101.23-15.4L101.23-15.4Q102.67-21.64 104.73-26.3 106.79-30.96 108.15-30.96L108.15-30.96Q108.83-30.96 108.83-30.28L108.83-30.28Q107.87-28.2 106.57-24.6 105.27-21 104.37-17.74 103.47-14.48 102.73-9.96 101.99-5.44 101.99-1.44L101.99-1.44Q101.99 4.52 104.59 4.52L104.59 4.52Q105.59 4.52 106.45 3.66 107.31 2.8 107.67 1.96L107.67 1.96Q107.87 1.52 108.39 1.72L108.39 1.72Q108.59 1.8 108.55 1.96L108.55 1.96Q108.31 2.48 107.95 3.16 107.59 3.84 106.53 4.84 105.47 5.84 104.39 5.84L104.39 5.84Q99.63 5.84 99.63-3.12L99.63-3.12Q99.63-6.28 100.19-9.88L100.19-9.88 99.67-9.88Q94.03 0 91.35 0ZM120.19-11.48L120.19-11.48Q118.67-11.48 118.67-14.8L118.67-14.8Q118.67-16.68 119.39-18.32L119.39-18.32Q116.67-15.96 113.31-9.54 109.95-3.12 109.95-1.16L109.95-1.16Q109.95-0.68 109.31-0.68L109.31-0.68Q108.15-0.68 108.15-3.84L108.15-3.84Q108.15-9.8 109.35-14.64 110.55-19.48 112.27-19.48L112.27-19.48Q113.03-19.48 113.03-18.6L113.03-18.6Q111.19-12.76 110.39-6.64L110.39-6.64 110.67-6.64Q113.91-14.12 117.83-18.32L117.83-18.32Q120.07-20.72 121.91-20.72L121.91-20.72Q122.31-20.72 122.57-20.48 122.83-20.24 122.83-19.88L122.83-19.88Q122.55-19.6 122.15-19.04 121.75-18.48 121.07-16.38 120.39-14.28 120.39-11.8L120.39-11.8Q120.39-11.48 120.19-11.48ZM126.14 0L126.14 0Q122.86 0 122.86-5.16L122.86-5.16Q122.86-8.24 124.38-11.92L124.38-11.92Q126.5-17.08 129.94-18.96L129.94-18.96Q131.42-19.76 132.7-19.76 133.98-19.76 134.72-19.2 135.46-18.64 135.66-18.08L135.66-18.08 135.9-17.56Q135.78-16.88 135.22-16.88L135.22-16.88Q134.58-16.88 134.48-17.18 134.38-17.48 134.26-17.7 134.14-17.92 133.7-18.3 133.26-18.68 132.7-18.68L132.7-18.68Q130.1-18.68 127.98-14L127.98-14Q125.58-8.6 125.58-3.84L125.58-3.84Q125.58-1.44 126.54-1.44L126.54-1.44Q127.3-1.44 128.68-3.14 130.06-4.84 131.58-7.4L131.58-7.4Q134.22-11.8 135.86-15.04L135.86-15.04Q137.22-17.92 138.66-17.92L138.66-17.92Q139.42-17.92 139.42-17L139.42-17Q139.06-16.24 138.5-14.84 137.94-13.44 137.02-9.28 136.1-5.12 136.1-1 136.1 3.12 137.34 3.12L137.34 3.12Q137.82 3.12 138.22 2.7 138.62 2.28 138.94 1.44L138.94 1.44Q139.06 1 139.5 1L139.5 1Q139.66 1 139.74 1.12 139.82 1.24 139.74 1.52 139.66 1.8 139.46 2.3 139.26 2.8 138.6 3.64 137.94 4.48 137.22 4.48L137.22 4.48Q135.54 4.48 134.64 2.28 133.74 0.08 133.74-2.92 133.74-5.92 134.18-8.68L134.18-8.68 133.78-8.68Q128.7 0 126.14 0ZM161.62 8.2L161.62 8.2Q164.62 8.2 166.86 6.42 169.1 4.64 170.42 1.72 171.74-1.2 172.7-4.8 173.66-8.4 174.32-12.26 174.98-16.12 175.62-19.52L175.62-19.52Q177.06-27.4 179.5-29.56L179.5-29.56Q173.86-28.68 170.9-24.04L170.9-24.04Q169.06-21.2 169.06-18.48L169.06-18.48Q169.06-15.16 171.1-14.88L171.1-14.88Q171.26-14.84 171.42-14.84L171.42-14.84Q171.42-14.56 171.18-14.32L171.18-14.32Q170.74-13.88 169.98-13.88L169.98-13.88Q167.62-13.88 166.98-16.4L166.98-16.4Q166.74-17.24 166.74-18.16L166.74-18.16Q166.74-20.36 168.06-22.88L168.06-22.88Q170.46-27.48 175.54-29.4L175.54-29.4Q178.42-30.48 181.82-30.48L181.82-30.48Q182.26-30.48 182.5-30.28 182.74-30.08 182.78-29.68L182.78-29.68Q180.58-29.68 179.46-24.8L179.46-24.8Q178.98-22.52 178.54-19.62 178.1-16.72 177.58-13.5 177.06-10.28 176.38-7.06 175.7-3.84 174.48-0.94 173.26 1.96 171.64 4.22 170.02 6.48 167.46 7.8 164.9 9.12 162.18 9.12 159.46 9.12 157.74 8.44 156.02 7.76 154.98 6.6L154.98 6.6Q152.7 4 152.7 0.6L152.7 0.6Q152.7-3.12 154.14-5.64L154.14-5.64Q157.06-10.8 161.78-10.8L161.78-10.8Q162.62-10.8 163.12-10.36 163.62-9.92 163.7-9.52L163.7-9.52 163.78-9.08Q163.06-9.16 162.78-9.16L162.78-9.16Q158.46-9.16 156.1-4.8L156.1-4.8Q154.62-2.12 154.62 0.56L154.62 0.56Q154.62 2.2 155.14 3.84L155.14 3.84Q156.62 8.2 161.62 8.2ZM189.18-11.6Q187.06-7.76 185.88-4.8 184.7-1.84 184.7-1.3 184.7-0.76 184.14-0.76L184.14-0.76Q182.94-0.76 182.94-3.96L182.94-3.96Q182.94-10.32 184.22-16.74 185.5-23.16 187.26-27.02 189.02-30.88 190.54-30.88L190.54-30.88Q191.18-30.88 191.18-30.24L191.18-30.24Q189.06-25.56 187.64-19.56 186.22-13.56 185.26-6.76L185.26-6.76 185.54-6.76Q190.62-19.24 195.5-19.24L195.5-19.24Q197.54-19.24 197.54-17.28L197.54-17.28Q197.26-16.36 196.82-14.86 196.38-13.36 195.66-9.48 194.94-5.6 194.94-2.68L194.94-2.68Q194.94 1.56 196.18 1.56L196.18 1.56Q196.62 1.56 197.06 1.18 197.5 0.8 197.66 0.8L197.66 0.8Q198.22 0.8 197.62 1.68L197.62 1.68Q197.46 1.96 196.92 2.44 196.38 2.92 195.86 2.92L195.86 2.92Q194.3 2.92 193.44 0.74 192.58-1.44 192.58-4.92L192.58-4.92Q192.58-10.8 194.34-17.04L194.34-17.04Q194.42-17.64 193.86-17.56L193.86-17.56Q193.58-17.52 193.3-17.24L193.3-17.24Q191.3-15.44 189.18-11.6ZM203.45 0L203.45 0Q200.17 0 200.17-5.16L200.17-5.16Q200.17-8.24 201.69-11.92L201.69-11.92Q203.81-17.08 207.25-18.96L207.25-18.96Q208.73-19.76 210.01-19.76 211.29-19.76 212.03-19.2 212.77-18.64 212.97-18.08L212.97-18.08 213.21-17.56Q213.09-16.88 212.53-16.88L212.53-16.88Q211.89-16.88 211.79-17.18 211.69-17.48 211.57-17.7 211.45-17.92 211.01-18.3 210.57-18.68 210.01-18.68L210.01-18.68Q207.41-18.68 205.29-14L205.29-14Q202.89-8.6 202.89-3.84L202.89-3.84Q202.89-1.44 203.85-1.44L203.85-1.44Q204.61-1.44 205.99-3.14 207.37-4.84 208.89-7.4L208.89-7.4Q211.53-11.8 213.17-15.04L213.17-15.04Q214.53-17.92 215.97-17.92L215.97-17.92Q216.73-17.92 216.73-17L216.73-17Q216.37-16.24 215.81-14.84 215.25-13.44 214.33-9.28 213.41-5.12 213.41-1 213.41 3.12 214.65 3.12L214.65 3.12Q215.13 3.12 215.53 2.7 215.93 2.28 216.25 1.44L216.25 1.44Q216.37 1 216.81 1L216.81 1Q216.97 1 217.05 1.12 217.13 1.24 217.05 1.52 216.97 1.8 216.77 2.3 216.57 2.8 215.91 3.64 215.25 4.48 214.53 4.48L214.53 4.48Q212.85 4.48 211.95 2.28 211.05 0.08 211.05-2.92 211.05-5.92 211.49-8.68L211.49-8.68 211.09-8.68Q206.01 0 203.45 0Z" opacity="1" transform="matrix(1,0,0,1,0,0)" fill="#ff0000" class="wordmark-text-0" data-fill-palette-color="primary" id="text-0"></path></svg></g></svg></g></svg></g></svg></g><g></g></svg></g></svg></g></svg></g></svg></g><defs></defs></svg><rect width="320" height="360" fill="none" stroke="none" visibility="hidden"></rect></g></svg></g></svg>